<?xml version="1.0" encoding="utf-8"?>
<!DOCTYPE svg PUBLIC "-//W3C//DTD SVG 1.1//EN" "http://www.w3.org/Graphics/SVG/1.1/DTD/svg11.dtd">
<svg version="1.1"  xmlns:dc="http://purl.org/dc/elements/1.1/" xmlns:svg="http://www.w3.org/2000/svg" xmlns="http://www.w3.org/2000/svg" xmlns:xlink="http://www.w3.org/1999/xlink" viewBox="12.5 18.511 100 87.978" enable-background="new 12.5 18.511 100 87.978" xml:space="preserve">
  <path id="filler" d="M62.289,18.522c-0.422,0.049-0.814,0.24-1.113,0.542L13.042,67.199c-0.728,0.734-0.721,1.92,0.014,2.647 c0.349,0.345,0.819,0.539,1.31,0.541h10.168v34.236c0.003,1.028,0.836,1.861,1.865,1.865h12.666h17.418h12.035h17.869h12.215 c1.028-0.004,1.861-0.837,1.865-1.865V70.388h10.168c1.034-0.004,1.869-0.845,1.865-1.879c-0.002-0.491-0.196-0.961-0.541-1.31 l-11.733-11.733V39.401c-0.003-1.028-0.837-1.861-1.865-1.865h-7.942c-1.028,0.004-1.861,0.837-1.865,1.865v4.392L63.824,19.064 C63.422,18.659,62.856,18.459,62.289,18.522z"/>
  <script type="application/ecmascript"> <![CDATA[
    var href = document.defaultView.location.href,
        color = null;

    if ( -1 != href.indexOf("?") ) {
      var param_list = href.split("?")[1].split(/&|;/),
          param_count = param_list.length;
          
      for (var p = 0; param_count > p; p++) {
        var c_param = param_list[p],
            key_arr = c_param.split('='),
            name = key_arr[0],
            value = key_arr[1];

        if(name === 'color' && value)
          color = value;
      }
    }

    var logo = document.getElementById("filler");
    logo.setAttribute("fill", color);
  ]]></script>
</svg>

