<svg xmlns="http://www.w3.org/2000/svg" xmlns:xlink="http://www.w3.org/1999/xlink" version="1.1" viewBox="0 0 100 100" xml:space="preserve">
  <g id="Team">
    <circle fill="#414141" cx="19.618" cy="14.444" r="9.498"/>
    <g>
      <path fill="#414141" d="M47.965,35.389c-12.567,0-22.753,14.294-22.753,31.927c0,8.415,2.324,18.357,6.116,15.074    c0.499,11.574,7.548,15.765,16.196,15.765c8.833,0,16.005-4.367,16.224-16.521c4.295,3.853,6.972-5.287,6.972-14.317    C70.72,49.683,60.531,35.389,47.965,35.389z"/>
      <g>
        <circle fill="#414141" cx="47.965" cy="22.942" r="11.017"/>
      </g>
    </g>
    <path fill="#414141" d="M21.013,67.315c0-13.427,5.498-25.158,13.631-31.385c-3.6-6.014-8.992-9.843-15.026-9.843   C8.783,26.088,0,38.412,0,53.614c0,7.256,2.004,6.438,5.273,3.608c0.431,9.979,6.508,13.593,13.964,13.593   c0.66,0,1.303-0.04,1.939-0.099C21.017,69.346,21.013,68.095,21.013,67.315z"/>
    <g>
      <path fill="#414141" d="M80.114,21.237c-7.37,0-13.798,6.443-17.233,16.007c7.251,6.481,12.038,17.54,12.038,30.071    c0,1.074-0.007,3.037-0.424,4.994c1.62,0.549,3.383,0.805,5.234,0.805c7.719,0,13.986-4.367,14.177-16.521    C97.66,60.445,100,62.194,100,53.165C100,35.531,91.097,21.237,80.114,21.237z"/>
    </g>
    <g>
      <circle fill="#414141" cx="80.114" cy="10.684" r="8.838"/>
    </g>
  </g>
</svg>
